<?xml version="1.0" encoding="utf-8"?><svg xml:space="preserve" viewBox="0 0 100 100" y="0" x="0" xmlns="http://www.w3.org/2000/svg" id="圖層_1" version="1.1" width="47px" height="47px" xmlns:xlink="http://www.w3.org/1999/xlink" style="width:100%;height:100%;background-size:initial;background-repeat-y:initial;background-repeat-x:initial;background-position-y:initial;background-position-x:initial;background-origin:initial;background-image:initial;background-clip:initial;background-attachment:initial;animation-play-state:paused" ><g class="ldl-scale" style="transform-origin:50% 50%;transform:rotate(0deg) scale(0.8, 0.8);animation-play-state:paused" ><path stroke-miterlimit="10" stroke-width="8" stroke="#333" fill="none" d="M76.5 90h-53C16 90 10 84 10 76.5v-53C10 16 16 10 23.5 10h53C84 10 90 16 90 23.5v53C90 84 84 90 76.5 90z" style="stroke:rgb(51, 51, 51);animation-play-state:paused" ></path>
<g style="animation-play-state:paused" ><path fill="#b3b3b3" d="M65.1 69.6H34.9c-1.1 0-2-.9-2-2v-9.2c0-1.1.9-2 2-2s2 .9 2 2v7.2h26.2v-7.2c0-1.1.9-2 2-2s2 .9 2 2v9.2c.1 1.1-.8 2-2 2z" style="fill:rgb(179, 179, 179);animation-play-state:paused" ></path></g>
<path fill="#666" d="M66.7 43L51.9 28.1c-1-1-2.7-1-3.7 0L33.3 43c-1 1-1 2.7 0 3.7s2.7 1 3.7 0l10.4-10.4V59c0 1.5 1.2 2.6 2.6 2.6 1.5 0 2.6-1.2 2.6-2.6V36.3L63 46.7c1 1 2.7 1 3.7 0 1.1-1 1.1-2.7 0-3.7z" id="XMLID_21_" style="fill:rgb(102, 102, 102);animation-play-state:paused" ></path>
<metadata xmlns:d="https://loading.io/stock/" style="animation-play-state:paused" ><d:name style="animation-play-state:paused" >upload</d:name>
<d:tags style="animation-play-state:paused" >upload,cloud,top,send,share,ftp,square,form</d:tags>
<d:license style="animation-play-state:paused" >by</d:license>
<d:slug style="animation-play-state:paused" >jjckel</d:slug></metadata></g><!-- generated by https://loading.io/ --></svg>